<mxfile host="app.diagrams.net" agent="Mozilla/5.0 (Windows NT 10.0; Win64; x64) AppleWebKit/537.36 (KHTML, like Gecko) Chrome/132.0.0.0 Safari/537.36" version="26.0.14">
  <diagram name="Page-1" id="9f46799a-70d6-7492-0946-bef42562c5a5">
    <mxGraphModel dx="1358" dy="1399" grid="1" gridSize="10" guides="1" tooltips="1" connect="1" arrows="1" fold="1" page="1" pageScale="1" pageWidth="1100" pageHeight="850" background="none" math="0" shadow="0">
      <root>
        <mxCell id="0" />
        <mxCell id="1" parent="0" />
        <mxCell id="78961159f06e98e8-17" value="Users" style="swimlane;html=1;fontStyle=1;align=center;verticalAlign=top;childLayout=stackLayout;horizontal=1;startSize=26;horizontalStack=0;resizeParent=1;resizeLast=0;collapsible=1;marginBottom=0;swimlaneFillColor=#ffffff;rounded=0;shadow=0;comic=0;labelBackgroundColor=none;strokeWidth=1;fillColor=none;fontFamily=Verdana;fontSize=12" parent="1" vertex="1">
          <mxGeometry x="640" y="-90" width="170" height="380" as="geometry" />
        </mxCell>
        <mxCell id="78961159f06e98e8-21" value="- id: int" style="text;html=1;strokeColor=none;fillColor=none;align=left;verticalAlign=top;spacingLeft=4;spacingRight=4;whiteSpace=wrap;overflow=hidden;rotatable=0;points=[[0,0.5],[1,0.5]];portConstraint=eastwest;" parent="78961159f06e98e8-17" vertex="1">
          <mxGeometry y="26" width="170" height="26" as="geometry" />
        </mxCell>
        <mxCell id="78961159f06e98e8-23" value="- name: string" style="text;html=1;strokeColor=none;fillColor=none;align=left;verticalAlign=top;spacingLeft=4;spacingRight=4;whiteSpace=wrap;overflow=hidden;rotatable=0;points=[[0,0.5],[1,0.5]];portConstraint=eastwest;" parent="78961159f06e98e8-17" vertex="1">
          <mxGeometry y="52" width="170" height="26" as="geometry" />
        </mxCell>
        <mxCell id="78961159f06e98e8-25" value="- email: string" style="text;html=1;strokeColor=none;fillColor=none;align=left;verticalAlign=top;spacingLeft=4;spacingRight=4;whiteSpace=wrap;overflow=hidden;rotatable=0;points=[[0,0.5],[1,0.5]];portConstraint=eastwest;" parent="78961159f06e98e8-17" vertex="1">
          <mxGeometry y="78" width="170" height="26" as="geometry" />
        </mxCell>
        <mxCell id="78961159f06e98e8-26" value="- password: string" style="text;html=1;strokeColor=none;fillColor=none;align=left;verticalAlign=top;spacingLeft=4;spacingRight=4;whiteSpace=wrap;overflow=hidden;rotatable=0;points=[[0,0.5],[1,0.5]];portConstraint=eastwest;" parent="78961159f06e98e8-17" vertex="1">
          <mxGeometry y="104" width="170" height="26" as="geometry" />
        </mxCell>
        <mxCell id="78961159f06e98e8-24" value="- role : enum{&quot;admin&quot;,&quot;user&quot;,&quot;agent&quot;}&lt;div&gt;&lt;br&gt;&lt;div&gt;-- created_at :&lt;span style=&quot;white-space: pre;&quot;&gt;&#x9;&lt;/span&gt;datetime()&lt;/div&gt;&lt;div&gt;&amp;nbsp;&lt;/div&gt;&lt;div&gt;- updated_at : datetime()&lt;/div&gt;&lt;/div&gt;" style="text;html=1;strokeColor=none;fillColor=none;align=left;verticalAlign=top;spacingLeft=4;spacingRight=4;whiteSpace=wrap;overflow=hidden;rotatable=0;points=[[0,0.5],[1,0.5]];portConstraint=eastwest;" parent="78961159f06e98e8-17" vertex="1">
          <mxGeometry y="130" width="170" height="110" as="geometry" />
        </mxCell>
        <mxCell id="78961159f06e98e8-19" value="" style="line;html=1;strokeWidth=1;fillColor=none;align=left;verticalAlign=middle;spacingTop=-1;spacingLeft=3;spacingRight=3;rotatable=0;labelPosition=right;points=[];portConstraint=eastwest;" parent="78961159f06e98e8-17" vertex="1">
          <mxGeometry y="240" width="170" height="8" as="geometry" />
        </mxCell>
        <mxCell id="78961159f06e98e8-20" value="+&amp;nbsp;&lt;code data-end=&quot;367&quot; data-start=&quot;334&quot;&gt;register(name, email, password)&lt;/code&gt; → Adds a new user&lt;div&gt;+ login(email,password)&amp;nbsp; &amp;nbsp; &amp;nbsp; &amp;nbsp; &amp;nbsp;-&amp;gt;&amp;nbsp;Authenticates user&lt;/div&gt;&lt;div&gt;&lt;code data-end=&quot;479&quot; data-start=&quot;440&quot;&gt;+update_profile(name, email, password)&lt;/code&gt; → Updates user details&lt;/div&gt;" style="text;html=1;strokeColor=none;fillColor=none;align=left;verticalAlign=top;spacingLeft=4;spacingRight=4;whiteSpace=wrap;overflow=hidden;rotatable=0;points=[[0,0.5],[1,0.5]];portConstraint=eastwest;" parent="78961159f06e98e8-17" vertex="1">
          <mxGeometry y="248" width="170" height="132" as="geometry" />
        </mxCell>
        <mxCell id="78961159f06e98e8-30" value="Tickets" style="swimlane;html=1;fontStyle=1;align=center;verticalAlign=top;childLayout=stackLayout;horizontal=1;startSize=26;horizontalStack=0;resizeParent=1;resizeLast=0;collapsible=1;marginBottom=0;swimlaneFillColor=#ffffff;rounded=0;shadow=0;comic=0;labelBackgroundColor=none;strokeWidth=1;fillColor=none;fontFamily=Verdana;fontSize=12" parent="1" vertex="1">
          <mxGeometry x="250" y="370" width="210" height="300" as="geometry" />
        </mxCell>
        <mxCell id="8FgHQLE4CDv5R5NrW5Um-14" style="edgeStyle=orthogonalEdgeStyle;rounded=0;orthogonalLoop=1;jettySize=auto;html=1;" edge="1" parent="78961159f06e98e8-30" source="78961159f06e98e8-33">
          <mxGeometry relative="1" as="geometry">
            <mxPoint x="700" y="83.00000000000023" as="targetPoint" />
          </mxGeometry>
        </mxCell>
        <mxCell id="78961159f06e98e8-33" value="-id : int&amp;nbsp;&lt;div&gt;- title : string&lt;/div&gt;&lt;div&gt;- description : text&lt;/div&gt;&lt;div&gt;- status : enum{&quot;open&quot;,&quot;in_progress&quot;,&quot;closed&quot;}&lt;/div&gt;&lt;div&gt;-created_at : datetime()&lt;/div&gt;&lt;div&gt;-updated_at : datetime()&lt;/div&gt;" style="text;html=1;strokeColor=none;fillColor=none;align=left;verticalAlign=top;spacingLeft=4;spacingRight=4;whiteSpace=wrap;overflow=hidden;rotatable=0;points=[[0,0.5],[1,0.5]];portConstraint=eastwest;" parent="78961159f06e98e8-30" vertex="1">
          <mxGeometry y="26" width="210" height="114" as="geometry" />
        </mxCell>
        <mxCell id="78961159f06e98e8-38" value="" style="line;html=1;strokeWidth=1;fillColor=none;align=left;verticalAlign=middle;spacingTop=-1;spacingLeft=3;spacingRight=3;rotatable=0;labelPosition=right;points=[];portConstraint=eastwest;" parent="78961159f06e98e8-30" vertex="1">
          <mxGeometry y="140" width="210" height="8" as="geometry" />
        </mxCell>
        <mxCell id="78961159f06e98e8-39" value="+&amp;nbsp;&lt;code data-end=&quot;1194&quot; data-start=&quot;1137&quot;&gt;create_ticket(title, description, category_id, user_id)&lt;/code&gt; → Create a new ticket&lt;div&gt;+&amp;nbsp;&lt;code style=&quot;background-color: transparent; color: light-dark(rgb(0, 0, 0), rgb(255, 255, 255));&quot; data-end=&quot;1264&quot; data-start=&quot;1221&quot;&gt;update_ticket(title, description, status)&lt;/code&gt;&lt;span style=&quot;background-color: transparent; color: light-dark(rgb(0, 0, 0), rgb(255, 255, 255));&quot;&gt; → Edit ticket details&lt;br&gt;&lt;/span&gt;&lt;/div&gt;&lt;div&gt;&lt;span style=&quot;background-color: transparent; color: light-dark(rgb(0, 0, 0), rgb(255, 255, 255));&quot;&gt;+&lt;/span&gt;&lt;code style=&quot;background-color: transparent; color: light-dark(rgb(0, 0, 0), rgb(255, 255, 255));&quot; data-end=&quot;1314&quot; data-start=&quot;1291&quot;&gt;change_status(status)&lt;/code&gt;&lt;span style=&quot;background-color: transparent; color: light-dark(rgb(0, 0, 0), rgb(255, 255, 255));&quot;&gt; → Change ticket status&lt;/span&gt;&lt;/div&gt;&lt;div&gt;&lt;span style=&quot;background-color: transparent; color: light-dark(rgb(0, 0, 0), rgb(255, 255, 255));&quot;&gt;+&amp;nbsp;&lt;/span&gt;&lt;code style=&quot;background-color: transparent; color: light-dark(rgb(0, 0, 0), rgb(255, 255, 255));&quot; data-end=&quot;1359&quot; data-start=&quot;1342&quot;&gt;delete_ticket()&lt;/code&gt;&lt;span style=&quot;background-color: transparent; color: light-dark(rgb(0, 0, 0), rgb(255, 255, 255));&quot;&gt; → Remove ticket&lt;/span&gt;&lt;/div&gt;&lt;p data-is-last-node=&quot;&quot; data-end=&quot;1452&quot; data-start=&quot;1379&quot;&gt;&lt;/p&gt;" style="text;html=1;strokeColor=none;fillColor=none;align=left;verticalAlign=top;spacingLeft=4;spacingRight=4;whiteSpace=wrap;overflow=hidden;rotatable=0;points=[[0,0.5],[1,0.5]];portConstraint=eastwest;" parent="78961159f06e98e8-30" vertex="1">
          <mxGeometry y="148" width="210" height="152" as="geometry" />
        </mxCell>
        <mxCell id="78961159f06e98e8-43" value="categories" style="swimlane;html=1;fontStyle=1;align=center;verticalAlign=top;childLayout=stackLayout;horizontal=1;startSize=26;horizontalStack=0;resizeParent=1;resizeLast=0;collapsible=1;marginBottom=0;swimlaneFillColor=#ffffff;rounded=0;shadow=0;comic=0;labelBackgroundColor=none;strokeWidth=1;fillColor=none;fontFamily=Verdana;fontSize=12" parent="1" vertex="1">
          <mxGeometry x="960" y="379" width="160" height="282" as="geometry" />
        </mxCell>
        <mxCell id="78961159f06e98e8-44" value="- id : int" style="text;html=1;strokeColor=none;fillColor=none;align=left;verticalAlign=top;spacingLeft=4;spacingRight=4;whiteSpace=wrap;overflow=hidden;rotatable=0;points=[[0,0.5],[1,0.5]];portConstraint=eastwest;" parent="78961159f06e98e8-43" vertex="1">
          <mxGeometry y="26" width="160" height="26" as="geometry" />
        </mxCell>
        <mxCell id="78961159f06e98e8-45" value="- name: string&lt;div&gt;-description : string&lt;/div&gt;" style="text;html=1;strokeColor=none;fillColor=none;align=left;verticalAlign=top;spacingLeft=4;spacingRight=4;whiteSpace=wrap;overflow=hidden;rotatable=0;points=[[0,0.5],[1,0.5]];portConstraint=eastwest;" parent="78961159f06e98e8-43" vertex="1">
          <mxGeometry y="52" width="160" height="38" as="geometry" />
        </mxCell>
        <mxCell id="78961159f06e98e8-49" value="- created_at: datetime()" style="text;html=1;strokeColor=none;fillColor=none;align=left;verticalAlign=top;spacingLeft=4;spacingRight=4;whiteSpace=wrap;overflow=hidden;rotatable=0;points=[[0,0.5],[1,0.5]];portConstraint=eastwest;" parent="78961159f06e98e8-43" vertex="1">
          <mxGeometry y="90" width="160" height="26" as="geometry" />
        </mxCell>
        <mxCell id="78961159f06e98e8-50" value="- updated_at: datetime()" style="text;html=1;strokeColor=none;fillColor=none;align=left;verticalAlign=top;spacingLeft=4;spacingRight=4;whiteSpace=wrap;overflow=hidden;rotatable=0;points=[[0,0.5],[1,0.5]];portConstraint=eastwest;" parent="78961159f06e98e8-43" vertex="1">
          <mxGeometry y="116" width="160" height="26" as="geometry" />
        </mxCell>
        <mxCell id="78961159f06e98e8-51" value="" style="line;html=1;strokeWidth=1;fillColor=none;align=left;verticalAlign=middle;spacingTop=-1;spacingLeft=3;spacingRight=3;rotatable=0;labelPosition=right;points=[];portConstraint=eastwest;" parent="78961159f06e98e8-43" vertex="1">
          <mxGeometry y="142" width="160" height="8" as="geometry" />
        </mxCell>
        <mxCell id="78961159f06e98e8-52" value="&lt;code data-end=&quot;764&quot; data-start=&quot;741&quot;&gt;+create_category(name)&lt;/code&gt; → Adds a new category&lt;div&gt;+&amp;nbsp;&lt;code style=&quot;background-color: transparent; color: light-dark(rgb(0, 0, 0), rgb(255, 255, 255));&quot; data-end=&quot;814&quot; data-start=&quot;791&quot;&gt;update_category(name)&lt;/code&gt;&lt;span style=&quot;background-color: transparent; color: light-dark(rgb(0, 0, 0), rgb(255, 255, 255));&quot;&gt; → Updates category details&lt;/span&gt;&lt;/div&gt;&lt;div&gt;&lt;code style=&quot;background-color: transparent; color: light-dark(rgb(0, 0, 0), rgb(255, 255, 255));&quot; data-end=&quot;865&quot; data-start=&quot;846&quot;&gt;+delete_category()&lt;/code&gt;&lt;span style=&quot;background-color: transparent; color: light-dark(rgb(0, 0, 0), rgb(255, 255, 255));&quot;&gt; → Removes the category&lt;/span&gt;&lt;/div&gt;&lt;div&gt;&lt;span style=&quot;background-color: transparent; color: light-dark(rgb(0, 0, 0), rgb(255, 255, 255));&quot;&gt;+&lt;/span&gt;&lt;code style=&quot;background-color: transparent; color: light-dark(rgb(0, 0, 0), rgb(255, 255, 255));&quot; data-end=&quot;915&quot; data-start=&quot;893&quot;&gt;get_all_categories()&lt;/code&gt;&lt;span style=&quot;background-color: transparent; color: light-dark(rgb(0, 0, 0), rgb(255, 255, 255));&quot;&gt; → Retrieves all categories&lt;/span&gt;&lt;/div&gt;" style="text;html=1;strokeColor=none;fillColor=none;align=left;verticalAlign=top;spacingLeft=4;spacingRight=4;whiteSpace=wrap;overflow=hidden;rotatable=0;points=[[0,0.5],[1,0.5]];portConstraint=eastwest;" parent="78961159f06e98e8-43" vertex="1">
          <mxGeometry y="150" width="160" height="132" as="geometry" />
        </mxCell>
        <mxCell id="8FgHQLE4CDv5R5NrW5Um-11" style="edgeStyle=orthogonalEdgeStyle;rounded=0;orthogonalLoop=1;jettySize=auto;html=1;exitX=0;exitY=0.5;exitDx=0;exitDy=0;" edge="1" parent="1" source="78961159f06e98e8-21" target="78961159f06e98e8-30">
          <mxGeometry relative="1" as="geometry" />
        </mxCell>
        <mxCell id="8FgHQLE4CDv5R5NrW5Um-12" value="*" style="edgeLabel;html=1;align=center;verticalAlign=middle;resizable=0;points=[];" vertex="1" connectable="0" parent="8FgHQLE4CDv5R5NrW5Um-11">
          <mxGeometry x="-0.9183" y="-2" relative="1" as="geometry">
            <mxPoint x="9" y="-11" as="offset" />
          </mxGeometry>
        </mxCell>
        <mxCell id="8FgHQLE4CDv5R5NrW5Um-13" value="1" style="edgeLabel;html=1;align=center;verticalAlign=middle;resizable=0;points=[];" vertex="1" connectable="0" parent="8FgHQLE4CDv5R5NrW5Um-11">
          <mxGeometry x="0.9158" y="1" relative="1" as="geometry">
            <mxPoint x="-16" y="10" as="offset" />
          </mxGeometry>
        </mxCell>
      </root>
    </mxGraphModel>
  </diagram>
</mxfile>
